<?xml version="1.0" encoding="UTF-8"?>
<svg width="411px" height="158px" viewBox="0 0 411 158" version="1.1" xmlns="http://www.w3.org/2000/svg" xmlns:xlink="http://www.w3.org/1999/xlink">
    <!-- Generator: Sketch 61.1 (89650) - https://sketch.com -->
    <title>Path 8</title>
    <desc>Created with Sketch.</desc>
    <g id="odu-rediseño-2019" stroke="none" stroke-width="1" fill="none" fill-rule="evenodd" stroke-dasharray="5">
        <g id="Artboard" transform="translate(-235.000000, -216.000000)" fill-rule="nonzero" stroke="#F9E848">
            <path d="M244.25789,216 C245.656477,223.58455 229.243908,270.244381 239.253229,294.11099 C253.524355,328.139611 296.646896,335.489526 368.620851,316.160734 C380.046874,313.092234 388.705078,303.749618 390.897101,292.123581 L391.181361,290.615923 C391.882856,286.89534 389.435401,283.310538 385.714818,282.609043 C383.847913,282.257049 381.91865,282.695554 380.387314,283.819939 C370.952737,290.747288 366.067242,302.283407 367.657169,313.879592 C371.38126,341.041114 383.193977,359.480634 403.09532,369.198154 C413.655025,374.354296 438.572862,375.883548 460.813371,363.240448 C466.854233,359.806389 496.907367,338.014367 527.150166,309.703289 C564.366036,274.864537 604.613356,233.620947 634.057757,246.639631 C641.757507,250.044034 645.274849,256.377519 644.983282,260.257245" id="Path-8"></path>
        </g>
    </g>
</svg>