<?xml version="1.0" encoding="UTF-8"?>
<svg width="29px" height="33px" viewBox="0 0 29 33" version="1.1" xmlns="http://www.w3.org/2000/svg" xmlns:xlink="http://www.w3.org/1999/xlink">
    <!-- Generator: Sketch 61.1 (89650) - https://sketch.com -->
    <title>Group</title>
    <desc>Created with Sketch.</desc>
    <g id="odu-rediseño-2019" stroke="none" stroke-width="1" fill="none" fill-rule="evenodd">
        <g id="Artboard" transform="translate(-94.000000, -301.000000)" fill="#FFFFFF" fill-rule="nonzero">
            <g id="Group" transform="translate(94.000000, 300.000000)">
                <path d="M19.4963855,17.4263158 C19.7563373,17.2942982 20.0162892,17.1622807 20.276241,16.8982456 C22.3558555,14.6539474 18.8465061,12.6736842 19.8863133,10.429386 C20.9261204,8.71315789 22.4858313,9.10921053 22.875759,9.24122807 C22.3558555,9.50526316 21.7059759,10.0333333 21.4460241,11.0894737 C21.1860723,12.8057018 23.2656867,14.3899123 22.3558555,16.238158 C22.2258796,16.8982456 21.3160482,17.954386 19.4963855,17.4263158 Z M25.4752771,17.4263158 C25.735229,17.2942982 25.9951808,17.1622807 26.2551325,16.8982456 C28.334747,14.6539474 24.8253976,12.6736842 25.8652049,10.429386 C26.905012,8.71315789 28.4647229,9.10921053 28.8546506,9.24122807 C28.334747,9.50526316 27.6848675,10.0333333 27.4249157,11.0894737 C27.1649639,12.8057018 29.2445783,14.3899123 28.334747,16.238158 C28.204771,16.8982456 27.2949398,17.954386 25.4752771,17.4263158 Z M22.4858313,17.4263158 C22.7457831,17.2942982 23.0057349,17.1622807 23.2656867,16.8982456 C25.3453012,14.6539474 21.8359518,12.6736842 22.875759,10.429386 C23.9155663,8.71315789 25.4752771,9.10921053 25.8652049,9.24122807 C25.3453012,9.50526316 24.6954217,10.0333333 24.4354698,11.0894737 C24.1755181,12.8057018 26.2551325,14.3899123 25.3453012,16.238158 C25.2153253,16.8982456 24.3054939,17.954386 22.4858313,17.4263158 Z M17.0268434,21.6508772 C17.2867951,21.7828947 17.546747,21.9149123 17.8066988,22.0469298 C20.7961445,22.7070176 20.6661687,18.6144737 23.1357108,18.4824562 C25.0853494,18.4824562 25.605253,20.1986842 25.605253,20.5947369 C25.0853494,20.1986842 24.3054939,19.9346491 23.3956627,20.3307018 C21.7059759,20.9907895 21.4460241,23.6311404 19.4963855,23.763158 C18.9764819,23.763158 17.416771,23.4991229 17.0268434,21.6508772 Z M20.1462651,26.9315789 C20.4062169,27.0635965 20.6661687,27.195614 20.9261204,27.3276316 C23.9155663,27.9877193 23.7855904,23.8951754 26.2551325,23.763158 C28.204771,23.763158 28.7246747,25.479386 28.7246747,25.8754386 C28.204771,25.479386 27.4249157,25.2153509 26.5150843,25.6114035 C24.8253976,26.2714913 24.5654457,28.9118421 22.6158072,29.0438596 C21.9659277,29.0438596 20.5361928,28.7798246 20.1462651,26.9315789 Z M18.5865543,24.291228 C18.8465061,24.4232456 19.1064578,24.5552631 19.3664096,24.6872807 C22.3558555,25.3473684 22.2258796,21.2548246 24.6954217,21.1228071 C26.6450602,21.1228071 27.1649639,22.8390351 27.1649639,23.2350878 C26.6450602,22.8390351 25.8652049,22.575 24.9553735,22.9710527 C23.2656867,23.6311404 23.0057349,26.2714913 21.0560964,26.4035087 C20.4062169,26.4035087 18.9764819,26.1394737 18.5865543,24.291228 Z M12.2177349,21.6508772 C12.2177349,22.0469298 12.2177349,22.3109649 12.3477108,22.575 C13.2575422,25.479386 16.7668916,23.3671053 18.0666506,25.479386 C19.1064578,27.195614 17.8066988,28.5157895 17.546747,28.6478071 C17.546747,27.9877193 17.416771,27.195614 16.7668916,26.5355263 C15.3371566,25.479386 12.9975904,26.4035087 11.8278072,24.8192982 C11.4378795,24.291228 10.9179759,22.9710527 12.2177349,21.6508772 Z M9.22828916,26.9315789 C9.22828916,27.3276316 9.22828916,27.5916667 9.35826506,27.8557018 C10.2680964,30.7600878 13.7774457,28.6478071 15.0772049,30.7600878 C16.117012,32.4763158 14.817253,33.7964913 14.5573012,33.9285087 C14.5573012,33.2684211 14.4273253,32.4763158 13.7774457,31.816228 C12.3477108,30.7600878 10.0081446,31.6842105 8.83836145,30.1 C8.31845783,29.5719298 7.92853012,28.2517544 9.22828916,26.9315789 Z M10.788,24.291228 C10.788,24.6872807 10.788,24.9513158 10.9179759,25.2153509 C11.8278072,28.1197369 15.3371566,26.0074562 16.6369157,28.1197369 C17.6767229,29.8359649 16.3769639,31.1561404 16.117012,31.288158 C16.117012,30.6280702 15.9870361,29.8359649 15.3371566,29.1758772 C13.9074217,28.1197369 11.5678554,29.0438596 10.3980723,27.4596491 C9.87816867,26.9315789 9.35826506,25.6114035 10.788,24.291228 Z M9.87816867,17.4263158 C9.61821687,17.5583333 9.35826506,17.6903509 9.09831325,17.954386 C7.0186988,20.1986842 10.5280482,22.1789474 9.48824096,24.4232456 C8.44843373,26.1394737 6.8887229,25.7434211 6.49879518,25.6114035 C7.0186988,25.3473684 7.66857831,24.8192982 7.92853012,23.763158 C8.18848192,22.0469298 6.10886747,20.4627193 7.0186988,18.6144737 C7.1486747,17.954386 8.05850602,16.8982456 9.87816867,17.4263158 Z M3.7693012,17.4263158 C3.50934939,17.5583333 3.24939759,17.6903509 2.98944578,17.954386 C0.909831325,20.1986842 4.41918072,22.1789474 3.37937349,24.4232456 C2.33956627,26.1394737 0.649879518,25.7434211 0.38992771,25.6114035 C0.909831325,25.3473684 1.55971084,24.8192982 1.81966265,23.763158 C2.07961445,22.0469298 2.53685961e-14,20.4627193 0.909831325,18.6144737 C1.16978313,17.954386 2.07961445,16.8982456 3.7693012,17.4263158 Z M6.8887229,17.4263158 C6.62877108,17.5583333 6.36881928,17.6903509 6.10886747,17.954386 C4.02925302,20.1986842 7.53860241,22.1789474 6.49879518,24.4232456 C5.45898796,26.1394737 3.8992771,25.7434211 3.50934939,25.6114035 C4.02925302,25.3473684 4.67913253,24.8192982 4.93908434,23.763158 C5.19903614,22.0469298 3.11942169,20.4627193 4.02925302,18.6144737 C4.15922892,17.954386 5.06906024,16.8982456 6.8887229,17.4263158 Z M12.2177349,13.2017544 C11.9577831,13.0697369 11.6978313,12.9377193 11.4378795,12.8057018 C8.44843373,12.145614 8.57840964,16.238158 6.10886747,16.3701754 C4.02925302,16.3701754 3.6393253,14.6539474 3.6393253,14.2578947 C4.15922892,14.6539474 4.93908434,14.9179825 5.84891566,14.5219298 C7.53860241,13.8618421 7.79855422,11.2214912 9.74819277,11.0894737 C10.3980723,11.0894737 11.8278072,11.3535088 12.2177349,13.2017544 Z M9.22828916,7.92105263 C8.96833735,7.78903509 8.70838555,7.65701754 8.44843373,7.525 C5.45898796,6.86491229 5.58896386,10.9574561 3.11942169,11.0894737 C1.16978313,11.0894737 0.649879518,9.37324562 0.649879518,8.97719298 C1.16978313,9.37324562 1.94963855,9.63728071 2.85946988,9.24122807 C4.54915663,8.58114035 4.80910843,5.94078947 6.75874698,5.80877193 C7.40862651,5.80877193 8.83836145,6.07280702 9.22828916,7.92105263 Z M10.788,10.5614035 C10.5280482,10.2973684 10.2680964,10.2973684 10.0081446,10.1653509 C7.0186988,9.50526316 7.1486747,13.5978071 4.67913253,13.7298246 C2.72949398,13.7298246 2.20959036,12.0135965 2.20959036,11.6175439 C2.72949398,12.0135965 3.50934939,12.2776316 4.41918072,11.8815789 C6.10886747,11.2214912 6.36881928,8.58114035 8.31845783,8.4491228 C8.96833735,8.4491228 10.3980723,8.71315789 10.788,10.5614035 Z M17.0268434,13.2017544 C17.0268434,12.8057018 17.0268434,12.5416667 16.8968675,12.2776316 C15.9870361,9.37324562 12.4776867,11.4855263 11.1779277,9.37324562 C10.1381205,7.65701754 11.4378795,6.33684211 11.6978313,6.20482456 C11.6978313,6.86491229 11.8278072,7.65701754 12.4776867,8.31710527 C13.9074217,9.37324562 16.246988,8.4491228 17.416771,10.0333333 C17.9366747,10.5614035 18.4565783,11.8815789 17.0268434,13.2017544 Z M20.1462651,7.92105263 C20.1462651,7.525 20.1462651,7.26096491 20.0162892,6.99692982 C19.1064578,4.09254386 15.5971084,6.20482456 14.2973494,4.09254386 C13.2575422,2.3763158 14.5573012,1.05614035 14.817253,0.924122807 C14.817253,1.58421053 14.947229,2.3763158 15.5971084,3.03640351 C17.0268434,4.09254386 19.3664096,3.16842105 20.5361928,4.75263158 C20.9261204,5.14868421 21.4460241,6.6008772 20.1462651,7.92105263 Z M18.5865543,10.5614035 C18.5865543,10.1653509 18.5865543,9.9013158 18.4565783,9.63728071 C17.546747,6.73289474 14.0373976,8.84517544 12.7376386,6.73289474 C11.6978313,5.01666667 12.9975904,3.69649122 13.2575422,3.56447369 C13.2575422,4.2245614 13.3875181,5.01666667 14.0373976,5.67675438 C15.4671325,6.73289474 17.8066988,5.80877193 18.9764819,7.39298246 C19.4963855,7.92105263 20.0162892,9.24122807 18.5865543,10.5614035 Z" id="Combined-Shape"></path>
            </g>
        </g>
    </g>
</svg>