<?xml version="1.0" encoding="UTF-8"?>
<svg width="70px" height="70px" viewBox="0 0 70 70" version="1.1" xmlns="http://www.w3.org/2000/svg" xmlns:xlink="http://www.w3.org/1999/xlink">
    <!-- Generator: Sketch 61.1 (89650) - https://sketch.com -->
    <title>meeting-point</title>
    <desc>Created with Sketch.</desc>
    <g id="odu-rediseño-2019" stroke="none" stroke-width="1" fill="none" fill-rule="evenodd">
        <g id="Artboard" transform="translate(-19.000000, -72.000000)" fill="#FFFFFF" fill-rule="nonzero">
            <g id="meeting-point" transform="translate(19.000000, 72.000000)">
                <path d="M35.0001364,0 C23.9351987,0 14.9333333,9.07777383 14.9333333,20.2357103 C14.9333333,24.8739146 16.5251075,29.3958818 19.4189198,32.9882273 C19.4404727,33.0219292 19.4636625,33.0548057 19.4884892,33.0867194 L33.9248124,51.7374783 C34.1833103,52.0714709 34.5799921,52.2666667 35.0001364,52.2666667 C35.4202808,52.2666667 35.8168261,52.0713333 36.075324,51.7372032 L50.5809438,32.9883649 C50.585991,32.9817621 50.5909017,32.9752968 50.5958125,32.968694 C53.4791213,29.3808879 55.0666667,24.8611217 55.0666667,20.2357103 C55.0666667,9.07777383 46.0650742,0 35.0001364,0 Z M48.4472107,31.2731454 C48.4298866,31.2946046 48.4135173,31.3162013 48.3976937,31.3383483 L34.9998636,48.6554756 L21.7372163,31.5211638 C21.7042049,31.4668281 21.6671013,31.4144182 21.6261781,31.3643469 C19.0692997,28.2435526 17.6612705,24.2913535 17.6612705,20.2357103 C17.6612705,10.5946336 25.4395337,2.75089891 35.0001364,2.75089891 C44.5607392,2.75089891 52.3391387,10.5946336 52.3391387,20.2357103 C52.3391387,24.2480225 50.9568911,28.1678953 48.4472107,31.2731454 Z" id="Shape"></path>
                <path d="M46.1687992,17.0913756 C45.9580692,16.3772244 45.2083129,15.9692535 44.4942849,16.1798452 C43.7801221,16.3905717 43.3720099,17.1401811 43.5827398,17.8543322 C44.5627755,21.1764768 43.6517697,24.7601757 41.2051183,27.2067873 C39.4228797,28.9891318 37.0530781,29.9706347 34.5325432,29.9706347 C32.0120083,29.9706347 29.6422066,28.9891318 27.8598332,27.2066525 C26.0774597,25.424308 25.0959409,23.0546796 25.0959409,20.5340508 C25.0959409,18.013422 26.0774597,15.6436588 27.859968,13.8614491 C30.3090462,11.4122759 33.8957694,10.5020938 37.2205295,11.4862931 C37.9346923,11.6978285 38.6845834,11.2902621 38.8958527,10.5763806 C39.1072567,9.86249904 38.6996837,9.11235042 37.9859254,8.90108462 C33.7125435,7.63618627 29.1021016,8.8064397 25.9535565,11.9549337 C23.6620876,14.2465003 22.4,17.2933386 22.4,20.5340508 C22.4,23.774763 23.6619528,26.8214665 25.9535565,29.1130331 C28.2451602,31.4045996 31.292048,32.6666667 34.5328128,32.6666667 C37.7735776,32.6666667 40.8203306,31.4045996 43.1119343,29.1133027 C46.2572437,25.9680444 47.4285947,21.3614523 46.1687992,17.0913756 Z" id="Shape"></path>
                <path d="M43.5957538,11.4874232 L43.5793769,11.4709554 C43.2179746,11.1096815 42.6321995,11.1096815 42.2709823,11.4709554 C41.9096726,11.8323219 41.9096726,12.4180389 42.2709823,12.7792203 L42.2873592,12.7956881 C42.4679678,12.9763713 42.704739,13.0666667 42.9415102,13.0666667 C43.1782814,13.0666667 43.4150526,12.9763713 43.5957538,12.7956881 C43.956971,12.4344142 43.956971,11.8486971 43.5957538,11.4874232 Z" id="Shape"></path>
                <path d="M56.0035277,41.8074381 C55.2863594,41.5724262 54.5134038,41.961021 54.2774014,42.6765593 C54.0413991,43.3919611 54.4315003,44.1628765 55.1486686,44.398434 C62.7360219,46.8890418 67.2655994,50.6207252 67.2655994,54.3805064 C67.2655994,57.5596459 63.9786578,60.7764309 58.2473278,63.2056601 C52.0601277,65.8281637 43.8041465,67.2724707 35,67.2724707 C26.1958535,67.2724707 17.9398723,65.8281637 11.7526722,63.2056601 C6.02147891,60.7764309 2.73440064,57.5597823 2.73440064,54.3805064 C2.73440064,51.7180385 5.0364493,49.0135603 9.21667214,46.7649206 C13.6333075,44.3890226 19.8881909,42.6683754 26.8289305,41.9199655 C27.5795985,41.8389458 28.1224314,41.1663725 28.0412115,40.417417 C27.9599917,39.6685979 27.2854843,39.1265566 26.534953,39.2081219 C19.2507384,39.9936318 12.6393902,41.8247605 7.91865907,44.3641984 C2.73822918,47.1509239 0,50.614451 0,54.3805064 C0,58.7701686 3.79408685,62.7959237 10.6832779,65.7160455 C17.2012369,68.4784923 25.8369275,70 35.0001367,70 C44.163346,70 52.7990366,68.4784923 59.3167221,65.7160455 C66.2059131,62.7959237 70,58.770305 70,54.3805064 C70,49.3100872 64.8986022,44.7274234 56.0035277,41.8074381 Z" id="Shape"></path>
                <path d="M48.7306392,40.158356 L48.698718,40.1518461 C48.2021971,40.0503851 47.7184263,40.3761579 47.6182598,40.8795573 C47.5181851,41.3829567 47.8395066,41.8734294 48.3360275,41.9749835 L48.3679487,41.9814934 C48.4292226,41.9939551 48.4901297,42 48.5503029,42 C48.9778448,42 49.3605319,41.6950588 49.4484068,41.2537822 C49.5484815,40.7503828 49.2271601,40.2599101 48.7306392,40.158356 Z" id="Shape"></path>
                <path d="M24.2483563,45.5501463 C24.1473682,45.0449782 23.6562284,44.7173748 23.1511947,44.8182404 C23.1302138,44.8224393 23.1079274,44.8276645 23.0872262,44.8333563 C22.5904916,44.9689324 22.2975981,45.4817517 22.4330881,45.9788954 C22.5461985,46.3939282 22.9219899,46.6666667 23.3320967,46.6666667 C23.4054833,46.6666667 23.4798023,46.657989 23.5540281,46.639794 C24.0378945,46.5226928 24.3469199,46.0429978 24.2483563,45.5501463 Z" id="Shape"></path>
                <path d="M40.54712,43.8706515 C39.7850124,43.8146039 39.1202598,44.3563528 39.0606575,45.0823332 C39.0010552,45.8083136 39.5699738,46.4430354 40.3312518,46.4998742 C49.3594132,47.1737634 54.1678409,49.6919461 54.1678409,51.2505951 C54.1678409,52.0025551 52.9107989,53.2799114 49.3679871,54.4050821 C45.7998685,55.5382973 41.0287787,56.162469 35.9334025,56.162469 C30.8380263,56.162469 26.0667982,55.5384292 22.4988179,54.4050821 C18.9560061,53.2799114 17.698964,52.0025551 17.698964,51.2505951 C17.698964,50.5633864 18.6762485,49.6969574 20.3131689,48.9332603 C20.9990796,48.6131959 21.2829858,47.8235192 20.9473597,47.1694115 C20.6117337,46.5153038 19.7836624,46.2444294 19.0976134,46.5646256 C15.6558905,48.1706182 14.9333333,49.9993504 14.9333333,51.2508588 C14.9333333,56.2069114 25.4976029,58.8 35.9332642,58.8 C46.3689255,58.8 56.9333333,56.2069114 56.9333333,51.2507269 C56.9333333,46.706261 48.1062433,44.4349512 40.54712,43.8706515 Z" id="Shape"></path>
            </g>
        </g>
    </g>
</svg>