<?xml version="1.0" encoding="UTF-8"?>
<svg width="56px" height="59px" viewBox="0 0 56 59" version="1.1" xmlns="http://www.w3.org/2000/svg" xmlns:xlink="http://www.w3.org/1999/xlink">
    <!-- Generator: Sketch 61.1 (89650) - https://sketch.com -->
    <title>OASIS_DANCE_YOU</title>
    <desc>Created with Sketch.</desc>
    <g id="odu-rediseño-2019" stroke="none" stroke-width="1" fill="none" fill-rule="evenodd">
        <g id="Artboard" transform="translate(-18.000000, -314.000000)">
            <g id="OASIS_DANCE_YOU" transform="translate(18.000000, 314.000000)">
                <g id="odu-icono">
                    <path d="M21.1656995,0.206854029 L9.16264047,0.206854029 L0.0229066012,9.53826912 L0.0229066012,24.7994997 L9.16264047,33.8091419 L21.3489523,33.8091419 L30.4886862,24.4777268 L30.4886862,9.37738265 L21.1656995,0.206854029 L21.1656995,0.206854029 Z M23.9373982,21.2599974 L18.7146932,26.5922346 L11.773993,26.5922346 L6.55128794,21.4668515 L6.55128794,12.7330147 L11.773993,7.40077748 L18.6230668,7.40077748 L23.9373982,12.6410796 L23.9373982,21.2599974 L23.9373982,21.2599974 Z" id="Shape" fill="#3BABDF"></path>
                    <path d="M45.1030977,0.206854029 L23.9832114,0.206854029 L23.9832114,9.53826912 L23.9832114,24.7994997 L23.9832114,33.7861581 L45.2634439,33.7861581 L54.3802712,24.454743 L54.3802712,9.37738265 L45.1030977,0.206854029 L45.1030977,0.206854029 Z M47.9206097,21.2599974 L42.6979046,26.5922346 L30.4657796,26.5922346 L30.4886862,21.4438677 L30.4886862,12.7100309 L30.4886862,7.3777937 L42.5833716,7.3777937 L47.8977031,12.6180958 L47.8977031,21.2599974 L47.9206097,21.2599974 Z" id="Shape" fill="#E41595"></path>
                    <polygon id="Shape" fill="#F9E848" points="36.0320837 3.51651849 36.0320837 21.1910461 30.7406588 26.5002995 23.6854256 26.5002995 18.3940007 21.2829812 18.3940007 3.44756715 11.7968996 0.206854029 11.7968996 24.3168403 21.0511665 33.8091419 33.3749179 33.8091419 42.6291848 23.9720836 42.6291848 0.206854029"></polygon>
                </g>
                <g id="Group" transform="translate(1.000000, 39.000000)" fill="#FFFFFF">
                    <path d="M4.03156181,8.37436727 C3.61924299,9.44800409 2.35937992,9.42653136 2.06159411,9.42653136 C1.9470611,9.42653136 1.58055548,9.42653136 1.25986306,9.31916768 C1.00789045,9.23327673 0.412318821,8.91118568 0.206159411,8.20258537 C0.114533006,7.9234398 0.114533006,7.77313064 0.114533006,7.25778496 L0.114533006,2.70556481 C0.114533006,1.88960082 0.114533006,1.09510957 0.870450845,0.558291151 C1.09951686,0.386509258 1.51183568,0.150309156 2.19903371,0.150309156 C2.40519312,0.150309156 2.97785815,0.150309156 3.45889678,0.515345678 C3.71086939,0.687127571 3.848309,0.901854936 3.8941222,1.00921862 C4.16900141,1.46014609 4.19190802,1.93254629 4.19190802,2.96323765 L4.19190802,7.30073044 C4.19190802,7.64429422 4.16900141,8.00933074 4.03156181,8.37436727 L4.03156181,8.37436727 Z M2.90913835,2.59820113 C2.90913835,2.03990997 2.90913835,1.69634619 2.74879214,1.48161882 C2.65716574,1.37425514 2.49681953,1.20247325 2.15322051,1.20247325 C2.08450071,1.20247325 1.8554347,1.22394598 1.69508849,1.33130967 C1.35148947,1.54603703 1.37439607,1.91107356 1.37439607,2.59820113 L1.37439607,7.47251233 C1.37439607,7.96638527 1.46602248,8.41731274 2.10740731,8.41731274 C2.93204495,8.41731274 2.88623175,7.73018517 2.88623175,7.17189402 L2.88623175,2.59820113 L2.90913835,2.59820113 Z" id="Shape"></path>
                    <path d="M7.99440381,9.34064041 L7.7424312,7.66576696 L6.27640872,7.66576696 L6.04734271,9.34064041 L4.81038625,9.34064041 L6.18478232,0.236200102 L7.7424312,0.236200102 L9.23136028,9.34064041 L7.99440381,9.34064041 L7.99440381,9.34064041 Z M6.96360676,1.80370987 L6.43675493,6.54918466 L7.58208499,6.54918466 L6.96360676,1.80370987 L6.96360676,1.80370987 Z" id="Shape"></path>
                    <path d="M12.461191,9.36211315 C12.3008448,9.42653136 12.0259656,9.5124223 11.6136468,9.5124223 C10.8348224,9.5124223 10.3995969,9.21180399 10.1934375,8.97560389 C9.8040253,8.54614916 9.7582121,8.05227622 9.7582121,7.53693054 L9.7582121,6.03383898 L10.9493554,6.03383898 L10.9493554,7.70871243 C10.9493554,8.13816716 11.0180752,8.33142179 11.2242346,8.46025821 C11.2700478,8.50320369 11.4074874,8.56762189 11.6136468,8.56762189 C12.2550316,8.54614916 12.232125,7.90196706 12.232125,7.49398507 C12.232125,6.82833023 12.117592,6.48476645 11.773993,5.90500256 C11.4074874,5.30376593 10.972262,4.78842026 10.6057563,4.20865637 C10.3995969,3.90803806 9.87274511,3.13501954 9.87274511,2.06138271 C9.87274511,1.05216409 10.3308771,0.515345678 10.743196,0.300618312 C10.9493554,0.193254629 11.2929544,0.0644182097 11.8427128,0.0644182097 C12.0946854,0.0644182097 13.0796693,0.0429454732 13.3774551,0.944800409 C13.4232683,1.1165823 13.4690815,1.26689146 13.4690815,1.63192798 L13.4690815,3.24238322 L12.3008448,3.24238322 L12.3008448,1.63192798 C12.2779382,1.5245643 12.3237514,1.00921862 11.7968996,1.00921862 C11.1784214,1.00921862 11.1555148,1.50309156 11.1555148,1.93254629 C11.1555148,2.68409207 11.3845808,3.1135468 11.7968996,3.7577289 C11.9801524,4.03687448 12.1634052,4.29454732 12.3695646,4.55222015 C12.5299108,4.74547478 12.6673505,4.93872941 12.8047901,5.15345678 C13.4690815,6.14120266 13.5607079,6.82833023 13.5607079,7.36514865 C13.5378013,7.53693054 13.5378013,8.88971294 12.461191,9.36211315" id="Shape"></path>
                    <polygon id="Rectangle-path" points="14.4082521 0.214727366 15.6681152 0.214727366 15.6681152 9.31916768 14.4082521 9.31916768"></polygon>
                    <path d="M19.3331714,9.36211315 C19.1728252,9.42653136 18.897946,9.5124223 18.4856272,9.5124223 C17.7068027,9.5124223 17.2715773,9.21180399 17.0654179,8.97560389 C16.6760057,8.54614916 16.6301925,8.05227622 16.6301925,7.53693054 L16.6301925,6.03383898 L17.8213357,6.03383898 L17.8213357,7.70871243 C17.8213357,8.13816716 17.8900555,8.33142179 18.0962149,8.46025821 C18.1420281,8.50320369 18.2794677,8.56762189 18.4856272,8.56762189 C19.127012,8.54614916 19.1041054,7.90196706 19.1041054,7.49398507 C19.1041054,6.82833023 18.9895724,6.48476645 18.6459734,5.90500256 C18.2794677,5.30376593 17.8442423,4.78842026 17.4777367,4.20865637 C17.2715773,3.90803806 16.7447255,3.13501954 16.7447255,2.06138271 C16.7447255,1.05216409 17.2028575,0.515345678 17.6151763,0.300618312 C17.8213357,0.193254629 18.1649347,0.0644182097 18.7146932,0.0644182097 C18.9666658,0.0644182097 19.9516496,0.0429454732 20.2494354,0.944800409 C20.2952486,1.1165823 20.3410618,1.26689146 20.3410618,1.63192798 L20.3410618,3.24238322 L19.1728252,3.24238322 L19.1728252,1.63192798 C19.1499186,1.5245643 19.1957318,1.00921862 18.66888,1.00921862 C18.0504017,1.00921862 18.0274951,1.50309156 18.0274951,1.93254629 C18.0274951,2.68409207 18.2565611,3.1135468 18.66888,3.7577289 C18.8521328,4.03687448 19.0353856,4.29454732 19.241545,4.55222015 C19.4018912,4.74547478 19.5393308,4.93872941 19.6767704,5.15345678 C20.3410618,6.14120266 20.4326883,6.82833023 20.4326883,7.36514865 C20.4097817,7.53693054 20.4326883,8.88971294 19.3331714,9.36211315" id="Shape"></path>
                    <path d="M27.6711742,8.50320369 C27.4650148,9.38358588 26.6403772,9.31916768 26.365498,9.31916768 L23.891585,9.31916768 L23.891585,0.214727366 L26.250965,0.214727366 C26.365498,0.214727366 26.938163,0.171781893 27.3275752,0.493872941 C27.7169874,0.81596399 27.739894,1.24541872 27.739894,1.69634619 L27.739894,7.7516579 C27.739894,8.13816716 27.7169874,8.33142179 27.6711742,8.50320369 L27.6711742,8.50320369 Z M26.4342178,1.97549177 C26.4342178,1.88960082 26.4342178,1.80370987 26.4113112,1.69634619 C26.365498,1.33130967 26.0218989,1.33130967 25.9073659,1.33130967 L25.1743547,1.33130967 L25.1743547,8.20258537 L26.0218989,8.20258537 C26.3196848,8.20258537 26.4342178,8.11669443 26.4342178,7.70871243 L26.4342178,1.97549177 L26.4342178,1.97549177 Z" id="Shape"></path>
                    <path d="M31.4965766,9.34064041 L31.244604,7.66576696 L29.7785815,7.66576696 L29.5495155,9.34064041 L28.2896525,9.34064041 L29.6640485,0.236200102 L31.2216974,0.236200102 L32.7335331,9.34064041 L31.4965766,9.34064041 L31.4965766,9.34064041 Z M30.4657796,1.80370987 L29.9389277,6.54918466 L31.0842578,6.54918466 L30.4657796,1.80370987 L30.4657796,1.80370987 Z" id="Shape"></path>
                    <polygon id="Shape" points="36.0320837 9.34064041 34.4744348 2.6411466 34.5889678 9.34064041 33.3749179 9.34064041 33.3749179 0.214727366 34.749314 0.214727366 36.2840563 6.42034824 36.2382431 0.214727366 37.4522929 0.214727366 37.4522929 9.34064041"></polygon>
                    <path d="M42.3543056,8.65351284 C42.1252396,8.97560389 41.6212943,9.44800409 40.5904973,9.44800409 C39.6055134,9.44800409 39.1015682,9.01854936 38.8725022,8.69645831 C38.5289032,8.22405811 38.5289032,7.66576696 38.5289032,7.12894854 L38.5289032,2.72703755 C38.5289032,2.51231018 38.5518098,2.31905555 38.5518098,2.10432818 C38.5747164,1.7607644 38.6434362,0.601236624 39.8803927,0.236200102 C40.1552719,0.150309156 40.3843379,0.128836419 40.6821237,0.128836419 C41.3922283,0.128836419 41.7816406,0.343563785 42.0336132,0.536818414 C42.2397726,0.687127571 42.4001188,0.8803822 42.4917452,1.09510957 C42.674998,1.50309156 42.6979046,1.91107356 42.6979046,2.36200102 L42.6979046,3.5215288 L41.3922283,3.5215288 L41.3922283,2.12580092 C41.3922283,1.93254629 41.4609481,1.18100051 40.6134039,1.18100051 C40.3385247,1.18100051 40.2010851,1.26689146 40.0865521,1.33130967 C39.7658596,1.58898251 39.7887662,1.97549177 39.7887662,2.31905555 L39.7887662,7.34367591 C39.7887662,7.45103959 39.7887662,7.55840328 39.8116728,7.64429422 C39.8345795,7.88049432 39.8574861,8.37436727 40.5904973,8.37436727 C40.6821237,8.37436727 40.8882831,8.39584 41.0944425,8.24553085 C41.4151349,8.03080348 41.4151349,7.64429422 41.4151349,7.30073044 L41.4151349,5.53996604 L42.7208112,5.53996604 L42.7208112,7.23631223 C42.7208112,7.77313064 42.674998,8.20258537 42.3543056,8.65351284" id="Shape"></path>
                    <polygon id="Shape" points="43.7287017 9.34064041 43.7287017 0.214727366 46.9356258 0.214727366 46.9356258 1.3527824 45.0114713 1.3527824 45.0114713 4.03687448 46.7294664 4.03687448 46.7294664 5.17492952 45.0343779 5.17492952 45.0343779 8.18111264 46.9356258 8.18111264 46.9356258 9.34064041"></polygon>
                    <path d="M54.2428316,8.20258537 C53.876326,9.40505862 52.6622761,9.46947683 52.2728639,9.46947683 C51.9292649,9.46947683 50.8526546,9.40505862 50.4632424,8.39584 C50.3487094,8.13816716 50.3028962,7.88049432 50.3028962,7.32220317 L50.3028962,0.214727366 L51.5627593,0.214727366 L51.5627593,7.25778496 C51.5627593,7.77313064 51.5398527,8.46025821 52.3415837,8.46025821 C52.4332101,8.46025821 52.6622761,8.46025821 52.8455289,8.30994906 C53.1204081,8.09522169 53.1433147,7.77313064 53.1433147,7.17189402 L53.1433147,0.214727366 L54.4031778,0.214727366 L54.4031778,7.12894854 C54.3573646,7.21483949 54.3573646,7.79460338 54.2428316,8.20258537" id="Shape"></path>
                </g>
                <g id="Group" transform="translate(9.000000, 51.000000)" fill="#FFFFFF">
                    <path d="M2.60917095,6.91135815 C2.45035185,7.1790516 2.11002521,7.44674505 1.4747488,7.44674505 C1.22517593,7.44674505 0.907537723,7.39807351 0.703341735,7.27639467 C0.657964849,7.2520589 0.567211077,7.20338736 0.476457305,7.10604429 C0.317638203,6.96002968 0.226884431,6.78967931 0.136130658,6.59499316 C0.0680653292,6.40030702 0.0680653292,6.22995664 0.0680653292,6.01093473 L0.0680653292,4.98883247 L0.544522634,4.98883247 L0.544522634,5.5728909 L0.544522634,6.01093473 C0.567211077,6.35163548 0.657964849,7.00870122 1.54281413,7.00870122 C1.61087946,7.00870122 1.83776389,7.00870122 2.01927143,6.88702238 C2.26884431,6.74100777 2.38228652,6.42464278 2.38228652,5.84058435 C2.38228652,5.28086168 2.26884431,5.01316823 2.13271365,4.81848209 C1.88314078,4.40477403 1.42937191,3.94239444 1.36130658,3.8937229 C0.975603052,3.48001484 0.726030178,3.18798562 0.58989952,2.99329948 C0.431080418,2.7499418 0.204195988,2.36056951 0.204195988,1.65483223 C0.204195988,1.6061607 0.204195988,1.31413148 0.249572874,1.11944533 C0.317638203,0.705737276 0.544522634,0.0730073044 1.4747488,0.0730073044 C1.58819102,0.0730073044 1.9512061,0.0730073044 2.26884431,0.267693449 C2.74530161,0.584058435 2.74530161,1.21678841 2.74530161,1.72783954 L2.74530161,2.23889067 L2.29153275,2.23889067 L2.29153275,1.6061607 C2.29153275,1.33846725 2.29153275,1.26545994 2.26884431,1.11944533 C2.22346742,0.876087652 2.08733676,0.486715362 1.49743724,0.486715362 C1.42937191,0.486715362 1.20248748,0.486715362 1.02097994,0.608394203 C0.816783951,0.754408812 0.680653292,1.04643803 0.680653292,1.58182493 C0.680653292,2.26322644 0.862160837,2.53091988 1.27055281,3.04197102 C1.40668347,3.23665716 1.56550257,3.40700754 1.72432167,3.57735791 C1.97389455,3.8207156 2.20077898,4.08840904 2.40497497,4.35610249 C2.74530161,4.79414632 2.83605538,5.20785438 2.83605538,5.76757705 C2.83605538,6.32729971 2.74530161,6.69233623 2.60917095,6.91135815" id="Shape"></path>
                    <path d="M6.14856807,3.57735791 C5.80824143,4.01540174 5.24103035,4.03973751 4.94608059,4.03973751 L4.2654273,4.03973751 L4.2654273,7.3250662 L3.78896999,7.3250662 L3.78896999,0.0973430725 L4.83263837,0.0973430725 C5.24103035,0.0973430725 5.69479921,0.0730073044 6.03512586,0.38937229 C6.39814095,0.705737276 6.39814095,1.16811687 6.39814095,1.70350377 L6.39814095,2.53091988 C6.42082939,2.92029217 6.39814095,3.23665716 6.14856807,3.57735791 L6.14856807,3.57735791 Z M5.94437209,1.89818991 C5.94437209,1.26545994 5.94437209,0.900423421 5.67211077,0.681401507 C5.49060322,0.535386899 5.35447257,0.511051131 4.94608059,0.511051131 L4.24273885,0.511051131 L4.24273885,3.60169368 L5.01414592,3.60169368 C5.26371879,3.60169368 5.53598011,3.57735791 5.7401761,3.33400023 C5.98974897,3.06630678 5.96706053,2.55525565 5.96706053,2.50658412 L5.96706053,1.89818991 L5.94437209,1.89818991 Z" id="Shape"></path>
                    <path d="M9.80140741,7.3250662 L8.57623148,3.79637983 L7.8502013,3.79637983 L7.8502013,7.3250662 L7.373744,7.3250662 L7.373744,0.0973430725 L8.6896737,0.0973430725 C9.03000034,0.0973430725 9.34763855,0.121678841 9.64258831,0.365036522 C10.0282918,0.681401507 10.0056034,1.21678841 10.0056034,1.36280301 L10.0056034,2.48224835 C10.0056034,2.50658412 10.0056034,2.77427757 9.96022651,2.94462794 C9.84678429,3.45567907 9.46108076,3.62602945 9.30226166,3.69903675 C9.23419633,3.72337252 9.18881944,3.74770829 9.05268879,3.77204406 L10.2778647,7.3250662 L9.80140741,7.3250662 L9.80140741,7.3250662 Z M9.50645765,1.48448186 C9.50645765,1.16811687 9.4837692,0.803080348 9.21150789,0.632729971 C9.05268879,0.535386899 8.89386968,0.535386899 8.73505058,0.535386899 L7.8502013,0.535386899 L7.8502013,3.38267177 L8.71236214,3.38267177 C8.75773903,3.38267177 8.93924657,3.38267177 9.12075412,3.30966446 C9.52914609,3.16364986 9.52914609,2.7499418 9.52914609,2.60392719 L9.52914609,1.48448186 L9.50645765,1.48448186 Z" id="Shape"></path>
                    <polygon id="Rectangle-path" points="10.9358296 0.0973430725 11.4122869 0.0973430725 11.4122869 7.3250662 10.9358296 7.3250662"></polygon>
                    <polygon id="Shape" points="14.4752267 7.3250662 12.9097241 0.486715362 12.955101 7.3250662 12.5013321 7.3250662 12.5013321 0.0973430725 13.1819854 0.0973430725 14.7928649 7.03303699 14.7247996 0.0973430725 15.2012569 0.0973430725 15.2012569 7.3250662"></polygon>
                    <path d="M18.6725886,7.3250662 L18.6725886,6.74100777 C18.5818349,6.86268661 18.5591464,6.91135815 18.4910811,6.98436545 C18.3776389,7.13038006 18.0600007,7.42240928 17.5381665,7.42240928 C17.1297745,7.42240928 16.744071,7.22772313 16.5171866,6.86268661 C16.3129906,6.52198586 16.2676137,6.20562087 16.2676137,5.45121206 L16.2676137,1.65483223 C16.2676137,1.24112417 16.2903021,0.754408812 16.5852519,0.438043826 C16.6760057,0.316364986 16.7667594,0.267693449 16.8121363,0.243357681 C16.9936439,0.121678841 17.2205283,0.0243357681 17.6742972,0.0243357681 C18.5137695,0.0243357681 18.8087193,0.535386899 18.9221615,0.900423421 C18.9675384,1.09510957 18.9675384,1.38713878 18.9675384,1.43581032 L18.9675384,2.43357681 L18.5137695,2.43357681 L18.5137695,1.679168 C18.5137695,1.46014609 18.5137695,1.11944533 18.4230158,0.924759189 C18.332262,0.730073044 18.128066,0.462379594 17.6516087,0.462379594 C17.5608549,0.462379594 17.2885936,0.462379594 17.0617092,0.657065739 C16.6986941,0.973430725 16.744071,1.46014609 16.744071,1.92252568 L16.744071,5.32953322 C16.744071,5.91359165 16.744071,6.22995664 16.8802016,6.49765009 C16.948267,6.6436647 17.1751514,6.98436545 17.6062318,6.98436545 C17.8104278,6.98436545 17.9692469,6.91135815 18.128066,6.76534354 C18.5818349,6.37597125 18.5591464,5.81624858 18.5591464,5.62156244 L18.5591464,4.47778133 L17.5608549,4.47778133 L17.5608549,4.03973751 L19.0129153,4.03973751 L19.0129153,7.3250662 L18.6725886,7.3250662 L18.6725886,7.3250662 Z" id="Shape"></path>
                    <path d="M24.1631919,7.00870122 C23.8001768,7.3250662 23.3690964,7.3250662 23.2329657,7.3250662 L21.8943476,7.3250662 L21.8943476,0.0973430725 L23.1649004,0.0973430725 C23.2783426,0.0973430725 23.7547999,0.0486715362 24.0270612,0.413708058 C24.2085688,0.657065739 24.2539456,0.949094957 24.2539456,1.24112417 L24.2539456,2.31189797 C24.2539456,2.36056951 24.2539456,2.62826296 24.2085688,2.79861333 C24.0497497,3.30966446 23.5959808,3.38267177 23.4598501,3.40700754 C23.5506039,3.40700754 23.9363074,3.45567907 24.1858803,3.67470099 C24.4808301,3.94239444 24.5035185,4.35610249 24.5035185,4.74547478 L24.5035185,5.98659896 C24.5035185,6.37597125 24.4581416,6.716672 24.1631919,7.00870122 L24.1631919,7.00870122 Z M23.8001768,1.33846725 C23.8001768,1.1437811 23.7774883,0.997766493 23.7547999,0.924759189 C23.6413577,0.559722667 23.2329657,0.535386899 22.9380159,0.535386899 L22.3481164,0.535386899 L22.3481164,3.21232139 L22.8018853,3.21232139 C23.0514582,3.21232139 23.1195235,3.18798562 23.2556541,3.13931409 C23.8228652,2.94462794 23.8001768,2.36056951 23.8001768,2.19021913 L23.8001768,1.33846725 L23.8001768,1.33846725 Z M24.0270612,4.72113902 C24.0270612,4.55078864 24.0270612,4.38043826 23.9589959,4.23442365 C23.7774883,3.69903675 23.2783426,3.65036522 22.8245737,3.65036522 L22.3481164,3.65036522 L22.3481164,6.88702238 L23.1422119,6.88702238 C23.4825386,6.88702238 23.6186692,6.81401507 23.7547999,6.716672 C23.9816843,6.52198586 24.0043728,6.27862818 24.0043728,5.74324128 L24.0043728,4.72113902 L24.0270612,4.72113902 Z" id="Shape"></path>
                    <path d="M27.8840965,7.3250662 L26.6589206,3.79637983 L25.9328904,3.79637983 L25.9328904,7.3250662 L25.4564331,7.3250662 L25.4564331,0.0973430725 L26.7723628,0.0973430725 C27.1126895,0.0973430725 27.4303277,0.121678841 27.7252774,0.365036522 C28.110981,0.681401507 28.0882925,1.21678841 28.0882925,1.36280301 L28.0882925,2.48224835 C28.0882925,2.50658412 28.0882925,2.77427757 28.0429156,2.94462794 C27.906785,3.45567907 27.5437699,3.62602945 27.3849508,3.69903675 C27.3168855,3.72337252 27.2715086,3.74770829 27.1353779,3.77204406 L28.3605538,7.3250662 L27.8840965,7.3250662 L27.8840965,7.3250662 Z M27.5891468,1.48448186 C27.5891468,1.16811687 27.5664583,0.803080348 27.294197,0.632729971 C27.1353779,0.535386899 26.9765588,0.535386899 26.8177397,0.535386899 L25.9328904,0.535386899 L25.9328904,3.38267177 L26.7950513,3.38267177 C26.8404282,3.38267177 27.0446241,3.38267177 27.2034432,3.30966446 C27.6345237,3.16364986 27.6118352,2.7499418 27.6118352,2.60392719 L27.6118352,1.48448186 L27.5891468,1.48448186 Z" id="Shape"></path>
                    <polygon id="Shape" points="29.494976 0.559722667 29.494976 3.33400023 31.083167 3.33400023 31.083167 3.77204406 29.494976 3.77204406 29.494976 6.86268661 31.4008052 6.86268661 31.4008052 7.3250662 29.0412071 7.3250662 29.0412071 0.0973430725 31.4234937 0.0973430725 31.4234937 0.559722667"></polygon>
                    <path d="M34.4864335,7.3250662 L34.1461068,5.13484707 L32.7394234,5.13484707 L32.3764083,7.3250662 L31.8772625,7.3250662 L33.1024384,0.0730073044 L33.7604033,0.0730073044 L34.9855792,7.3250662 L34.4864335,7.3250662 L34.4864335,7.3250662 Z M33.5335189,1.28979571 C33.488142,1.0707738 33.4654535,0.851751884 33.4427651,0.608394203 C33.4200766,0.827416116 33.3973882,1.02210226 33.3746998,1.24112417 L32.8301771,4.64813171 L34.0780415,4.64813171 L33.5335189,1.28979571 L33.5335189,1.28979571 Z" id="Shape"></path>
                    <polygon id="Shape" points="37.9577653 7.3250662 36.7325893 3.57735791 36.2334436 4.57512441 36.2334436 7.3250662 35.7796747 7.3250662 35.7796747 0.0973430725 36.256132 0.0973430725 36.256132 3.62602945 37.9123884 0.0973430725 38.456911 0.0973430725 37.0275391 2.96896371 38.456911 7.3250662"></polygon>
                </g>
            </g>
        </g>
    </g>
</svg>