<?xml version="1.0" encoding="UTF-8"?>
<svg width="30px" height="19px" viewBox="0 0 30 19" version="1.1" xmlns="http://www.w3.org/2000/svg" xmlns:xlink="http://www.w3.org/1999/xlink">
    <!-- Generator: Sketch 61.1 (89650) - https://sketch.com -->
    <title>ODU ícono</title>
    <desc>Created with Sketch.</desc>
    <g id="odu-rediseño-2019" stroke="none" stroke-width="1" fill="none" fill-rule="evenodd">
        <g id="Artboard" transform="translate(-94.000000, -343.000000)" fill="#FFFFFF">
            <g id="ODU-ícono" transform="translate(94.000000, 343.000000)">
                <path d="M11.6344538,0 L5.02941176,0 L0,5.27633379 L0,13.9056088 L5.02941176,19 L11.7352941,19 L16.7647059,13.7236662 L16.7647059,5.18536252 L11.6344538,0 L11.6344538,0 Z M13.1596639,11.9042408 L10.2857143,14.9192886 L6.46638655,14.9192886 L3.59243697,12.0212038 L3.59243697,7.08276334 L6.46638655,4.06771546 L10.2352941,4.06771546 L13.1596639,7.03077975 L13.1596639,11.9042408 L13.1596639,11.9042408 Z" id="Shape"></path>
                <path d="M24.8834168,0 L13.2352941,0 L13.2352941,5.27994524 L13.2352941,13.9151266 L13.2352941,19 L24.9718516,19 L30,13.7200548 L30,5.1889117 L24.8834168,0 L24.8834168,0 Z M26.4373421,11.9123888 L23.5568953,14.9295003 L16.8105856,14.9295003 L16.8232191,12.0164271 L16.8232191,7.07460643 L16.8232191,4.05749487 L23.4937276,4.05749487 L26.4247085,7.02258727 L26.4247085,11.9123888 L26.4373421,11.9123888 Z" id="Shape"></path>
                <polygon id="Shape" points="19.3540774 1.87140903 19.3540774 11.8652531 16.4769251 14.8673051 12.640722 14.8673051 9.76356962 11.9172367 9.76356962 1.83242134 6.17647059 0 6.17647059 13.6326949 11.2083734 19 17.9092737 19 22.9411765 13.4377565 22.9411765 0"></polygon>
            </g>
        </g>
    </g>
</svg>