<?xml version="1.0" encoding="UTF-8"?>
<svg width="123px" height="16px" viewBox="0 0 123 16" version="1.1" xmlns="http://www.w3.org/2000/svg" xmlns:xlink="http://www.w3.org/1999/xlink">
    <!-- Generator: Sketch 61.1 (89650) - https://sketch.com -->
    <title>Path 5 Copy 2</title>
    <desc>Created with Sketch.</desc>
    <g id="odu-rediseño-2019" stroke="none" stroke-width="1" fill="none" fill-rule="evenodd" stroke-linecap="round">
        <g id="Artboard" transform="translate(-15.000000, -172.000000)" fill-rule="nonzero" stroke="#F9E848" stroke-width="5">
            <path d="M18,176.510118 L18.6345417,177.584176 C22.4221425,183.995268 30.6898164,186.122028 37.1009081,182.334427 C38.1809946,181.696324 39.1667406,180.910603 40.0296221,180 L40.4678314,179.537556 C46.4322762,173.243248 56.3699584,172.975842 62.6642657,178.940286 C63.0200606,179.277435 63.3598723,179.631061 63.6825843,180 C69.391628,186.526847 79.310777,187.189807 85.8376236,181.480763 C86.2065631,181.158051 86.5601882,180.818239 86.8973371,180.462444 L87.7737558,179.537556 C93.7382006,173.243248 103.675883,172.975842 109.97019,178.940286 C110.325985,179.277435 110.665797,179.631061 110.988509,180 C116.163081,185.915814 125.153616,186.516709 131.06943,181.342136 C131.751561,180.745475 132.375138,180.08502 132.931665,179.369768 L135,176.71153 L135,176.71153" id="Path-5-Copy-2"></path>
        </g>
    </g>
</svg>