<?xml version="1.0" encoding="UTF-8"?>
<svg width="70px" height="70px" viewBox="0 0 70 70" version="1.1" xmlns="http://www.w3.org/2000/svg" xmlns:xlink="http://www.w3.org/1999/xlink">
    <!-- Generator: Sketch 61.1 (89650) - https://sketch.com -->
    <title>ticket (1)</title>
    <desc>Created with Sketch.</desc>
    <g id="odu-rediseño-2019" stroke="none" stroke-width="1" fill="none" fill-rule="evenodd">
        <g id="Artboard" transform="translate(-103.000000, -72.000000)" fill="#FFFFFF" fill-rule="nonzero">
            <g id="ticket-(1)" transform="translate(103.000000, 72.000000)">
                <path d="M32.1867287,14 C32.5415361,14 32.8963436,13.8645774 33.167189,13.5937319 L33.1937319,13.5677308 C33.7354227,13.0260399 33.7354227,12.147959 33.1937319,11.6062682 C32.652041,11.0645773 31.7739602,11.0645773 31.2322693,11.6062682 L31.2062681,11.632811 C30.6645773,12.1739602 30.6645773,13.052041 31.2062681,13.5937319 C31.4771136,13.8645774 31.8319211,14 32.1867287,14 Z" id="Shape"></path>
                <path d="M68.693695,23.4387207 C68.693695,22.6125335 69.0157318,21.8365479 69.5994567,21.2522887 C69.8558044,20.9959411 70,20.6482697 70,20.2856445 C70,19.9230194 69.8558044,19.575348 69.5994567,19.3190003 L63.3429718,13.0619811 C62.8089142,12.5284577 61.9432067,12.5284577 61.4091491,13.0619811 C60.8254242,13.6462402 60.0489045,13.9677429 59.2232513,13.9677429 C58.3970641,13.9677429 57.6205444,13.6462402 57.0368195,13.0619811 C55.8309173,11.8566131 55.8309173,9.89448551 57.0368195,8.6891175 C57.5703431,8.15559391 57.5703431,7.28988641 57.0368195,6.75582879 L50.6809997,0.400543281 C50.424652,0.144195625 50.0769806,0 49.7143555,0 C49.3517303,0 49.0040589,0.144195625 48.7477112,0.400543281 C48.1639862,0.984268223 47.3874665,1.306305 46.5612793,1.306305 C45.7356263,1.306305 44.9591064,0.984268223 44.3748473,0.400543281 C44.1184997,0.144195625 43.7708283,0 43.4082031,0 C43.045578,0 42.6979066,0.144195625 42.4415589,0.400543281 L35.3369904,7.50511166 C34.8029328,8.03863525 34.8029328,8.90434262 35.3369904,9.43840023 C35.871048,9.97245785 36.7362213,9.97245785 37.270813,9.43840023 L39.2041016,7.50457764 L62.4954224,30.7958984 L30.7958984,62.4954224 L7.50457764,39.2041016 L30.6036377,16.1055755 C31.1371613,15.5715179 31.1371613,14.7058105 30.6031037,14.1717529 C30.0695801,13.6382293 29.2038727,13.6382293 28.6698151,14.1717529 L0.400543281,42.4415589 C0.144195625,42.6979066 0,43.045578 0,43.4082031 C0,43.7708283 0.144195625,44.1184997 0.400543281,44.3748473 C0.984268223,44.9591064 1.306305,45.7350921 1.306305,46.5612793 C1.306305,47.3869323 0.984268223,48.1634521 0.400543281,48.7477112 C0.144195625,49.0040589 0,49.3517303 0,49.7143555 C0,50.0769806 0.144195625,50.424652 0.400543281,50.6809997 L6.75582879,57.0368195 C7.01217645,57.2931671 7.36038215,57.4368286 7.72247314,57.4368286 C8.0850983,57.4368286 8.43276984,57.2931671 8.68965152,57.0368195 C9.27337646,56.4525604 10.0498962,56.1310578 10.8755493,56.1310578 C11.7017365,56.1310578 12.4777222,56.4525604 13.0619811,57.0368195 C13.6457062,57.6205444 13.9677429,58.3970641 13.9677429,59.2232513 C13.9677429,60.0489045 13.6462402,60.8254242 13.0619811,61.4091491 C12.5284577,61.9432067 12.5284577,62.8089142 13.0619811,63.3429718 L19.3190003,69.5994567 C19.586029,69.8664857 19.9358368,70 20.2856445,70 C20.6354523,70 20.9852601,69.8664857 21.2522887,69.5994567 C21.8360138,69.0157318 22.6125335,68.693695 23.4387207,68.693695 C24.2643737,68.693695 25.0408936,69.0157318 25.6246185,69.5994567 C25.8815003,69.8558044 26.2291717,70 26.5912629,70 C26.953888,70 27.3015594,69.8558044 27.5584411,69.5994567 L69.5994567,27.5584411 C69.8558044,27.3020934 70,26.954422 70,26.5917969 C70,26.2291717 69.8558044,25.8815003 69.5994567,25.6251527 C69.0157318,25.0408936 68.693695,24.2643737 68.693695,23.4387207 Z M26.4785767,66.8127441 C25.5728149,66.2567902 24.5281982,65.9598542 23.4387207,65.9598542 C22.3492432,65.9598542 21.3051605,66.2567902 20.3988647,66.8127441 L15.8492279,62.2625732 C16.405182,61.3568115 16.7021179,60.3127288 16.7021179,59.2232513 C16.7021179,57.6670075 16.0959626,56.2036896 14.9958039,55.1035309 C13.8956452,54.0028382 12.4323273,53.3966828 10.8760833,53.3966828 C10.8760833,53.3966828 10.8760833,53.3966828 10.8755493,53.3966828 C9.78607178,53.3966828 8.7419891,53.6941528 7.83622738,54.2501068 L3.18725586,49.6011353 C3.74374383,48.6953735 4.04068,47.6512909 4.04068,46.5612793 C4.04068,45.4718018 3.74374383,44.4277191 3.18725586,43.5219574 L5.57182309,41.1379242 L28.8626099,64.4287109 L26.4785767,66.8127441 Z M66.8127441,26.4785767 L64.4287109,28.8626099 L41.1373901,5.57128906 L43.5214233,3.18725586 C44.4271851,3.7432098 45.4718018,4.04068 46.5612793,4.04068 C47.6512909,4.04068 48.6953735,3.7432098 49.6011353,3.18725586 L54.251175,7.83729557 C52.880249,10.0803376 53.1643677,13.0566406 55.1029968,14.9952698 C56.2036896,16.0959626 57.6664733,16.7021179 59.2232513,16.7021179 C60.3127288,16.7021179 61.3568115,16.405182 62.2625732,15.8492279 L66.8127441,20.3988647 C66.2562562,21.3046265 65.95932,22.3487091 65.95932,23.4387207 C65.95932,24.5281982 66.2567902,25.5722809 66.8127441,26.4785767 L66.8127441,26.4785767 Z" id="Shape"></path>
                <path d="M32.9571456,31.0069082 C32.9528313,31.0053215 32.9490563,31.0042638 32.9452812,31.0026771 L32.937731,30.9995037 C32.930181,30.9968593 32.9226308,30.9947438 32.9150808,30.9920994 C32.8811053,30.9799349 32.8471298,30.9682993 32.812615,30.9582505 C32.7942791,30.9534905 32.7764824,30.9497883 32.7581464,30.9455572 C32.733339,30.9397394 32.7085314,30.9333927 32.6831846,30.9286328 C32.6589164,30.9244017 32.634109,30.9212283 32.6093015,30.9185839 C32.5904262,30.9159394 32.5715509,30.9132949 32.5526757,30.9117083 C32.5251717,30.9090638 32.4976677,30.9085349 32.4701638,30.9074772 C32.4534457,30.9069484 32.4367276,30.9064194 32.4200095,30.9064194 C32.3930449,30.9064194 32.3660801,30.9085349 32.3396548,30.9101216 C32.3213188,30.9111795 32.3035221,30.9122372 32.2851862,30.9138239 C32.2614573,30.9164683 32.2377284,30.9201705 32.2139995,30.9244017 C32.1924278,30.9275749 32.1713953,30.9307483 32.1509022,30.9349794 C32.1309483,30.9386815 32.1109944,30.9439705 32.0910406,30.9492594 C32.0673117,30.9550771 32.0430435,30.9608949 32.0193145,30.9688283 C32.0025965,30.9735882 31.9864176,30.9799349 31.9702389,30.9852237 C31.9443528,30.9942149 31.9179275,31.0037348 31.8925807,31.0143126 C31.8780197,31.0206592 31.8634588,31.0275348 31.848898,31.0338816 C31.8235511,31.0460459 31.7976651,31.0576815 31.7728575,31.0709037 C31.757218,31.0793659 31.7421178,31.0888859 31.7270176,31.097877 C31.7043672,31.1110992 31.681717,31.1237925 31.6601452,31.1380725 C31.6401914,31.1512947 31.6213161,31.1655747 31.6024408,31.1798546 C31.5862621,31.192019 31.5700832,31.2031258 31.5539045,31.216348 C31.5285577,31.2369746 31.5042895,31.2591879 31.4800212,31.2819301 C31.4724712,31.2888056 31.4643817,31.2951523 31.4568317,31.3025567 L31.4492815,31.3094323 C31.4476637,31.3115479 31.4455064,31.3136634 31.4433494,31.31525 L26.6635928,36.0027865 C26.3443311,35.5500582 25.9080429,35.1565653 25.3757603,34.855628 C23.4731335,33.7782826 20.7960816,34.09826 19.2812067,35.5839071 C18.4738845,36.3756527 18.0899077,37.4170338 18.2274275,38.4414903 C18.3687223,39.4960935 19.0476926,40.440159 20.0901465,41.0303983 C20.8489322,41.4598556 21.7306768,41.6671797 22.6129607,41.6671797 C23.9428579,41.6671797 25.2738339,41.1954114 26.1852396,40.3021191 L32.7700108,33.8443936 L43.5488662,37.9972242 L40.246234,41.2356069 C39.9269723,40.7828786 39.4906841,40.3893857 38.9584015,40.0884484 C37.0563141,39.0111029 34.3787228,39.3310804 32.8638479,40.8167274 C32.0565258,41.6084731 31.672549,42.649854 31.8100688,43.6743105 C31.9513636,44.7294426 32.6303339,45.6729793 33.6727879,46.2632185 C34.4315736,46.6926758 35.3133182,46.9 36.1956019,46.9 C37.52496,46.9 38.8553966,46.4287605 39.766263,45.5365262 C39.7668023,45.5359972 39.7673415,45.5354683 39.7678808,45.5349395 L46.9917147,38.4499525 L52.0955866,33.4445541 C52.4250948,33.1219322 52.5658503,32.6580973 52.4709347,32.2111867 C52.3760191,31.7642762 52.0572968,31.3940544 51.6242443,31.2269257 L38.0416029,25.9941053 C37.3324323,25.7206702 36.5305031,26.0633897 36.2516884,26.7594067 C35.9728738,27.4554236 36.3223359,28.2408226 37.0320458,28.5142578 L48.6527381,32.9912969 L45.6785354,35.9081156 L32.9571456,31.0069082 Z M21.4707374,38.6853077 C21.1779012,38.5192369 20.9934628,38.3013349 20.9648803,38.0881929 C20.933062,37.8501933 21.0937715,37.6359935 21.2339877,37.4984825 C21.6174252,37.1224431 22.2332982,36.9214654 22.8443175,36.9214654 C23.2541804,36.9214654 23.6618861,37.0119053 23.9951695,37.2001895 C24.2880056,37.3662605 24.4729833,37.5841625 24.5015659,37.7978333 C24.5333841,38.0353041 24.3726748,38.2495038 24.2324585,38.3870148 C23.5917781,39.0158629 22.3012492,39.1549605 21.4707374,38.6853077 Z M35.0533787,43.9181281 C34.7605424,43.7520571 34.5761042,43.534684 34.5475215,43.3210133 C34.5157033,43.0830135 34.6758734,42.8688138 34.8160897,42.7313029 C35.2000665,42.3552633 35.8159394,42.1542858 36.4269588,42.1542858 C36.8368217,42.1542858 37.2445275,42.2447257 37.5778107,42.4335388 C37.870647,42.5996096 38.0550852,42.8169827 38.0842071,43.0306536 C38.1160255,43.2686534 37.955316,43.4828531 37.8150997,43.620364 C37.17388,44.2492121 35.8833512,44.3877809 35.0533787,43.9181281 Z" id="Shape"></path>
                <path d="M26.1675325,50.8062682 C25.6257631,50.2645773 24.7480965,50.2645773 24.2063271,50.8062682 C23.6645576,51.3474174 23.6645576,52.2254982 24.2063271,52.7671891 L24.232332,52.7937319 C24.5032167,53.0645774 24.8580758,53.2 25.2134765,53.2 C25.5683356,53.2 25.9231945,53.0640357 26.1940793,52.7937319 C26.7353069,52.252041 26.7353069,51.3739602 26.1940793,50.8322693 L26.1675325,50.8062682 Z" id="Shape"></path>
                <path d="M26.9911343,53.5907705 C26.4696219,54.1123193 26.4696219,54.9577499 26.9911343,55.4792987 L29.9204694,58.40936 C30.1812256,58.6696127 30.5233377,58.8 30.8649283,58.8 C31.206519,58.8 31.5481095,58.6696127 31.8088657,58.40936 C32.3303781,57.8878112 32.3303781,57.0423804 31.8088657,56.5208316 L28.8790092,53.5907705 C28.3574968,53.0697432 27.5121251,53.0697432 26.9911343,53.5907705 Z" id="Shape"></path>
            </g>
        </g>
    </g>
</svg>